<svg width="65" height="79" viewBox="0 0 65 79" fill="none" xmlns="http://www.w3.org/2000/svg">
<path d="M6.786 54.562H0.486V54.04C1.182 52.768 2.046 51.31 3.078 49.666C4.11 48.01 5.064 46.606 5.94 45.454H8.568V53.032H10.296V54.562H8.568V58H6.786V54.562ZM6.786 53.032V46.894C5.478 48.526 4.146 50.572 2.79 53.032H6.786ZM17.6131 50.944V48.874H19.3051V50.728C19.3051 51.868 19.4611 52.624 19.7731 52.996C20.0851 53.368 20.6371 53.554 21.4291 53.554C22.0171 53.554 22.5211 53.464 22.9411 53.284C23.3611 53.092 23.5711 52.834 23.5711 52.51V48.874H25.2631V58H23.5711V54.436C22.8751 54.892 22.0111 55.12 20.9791 55.12C19.7671 55.12 18.9031 54.832 18.3871 54.256C17.8711 53.668 17.6131 52.564 17.6131 50.944ZM35.5774 52.168V57.532C34.4254 58.012 33.1234 58.252 31.6714 58.252C30.2674 58.252 29.2834 58.036 28.7194 57.604C28.1674 57.16 27.8914 56.356 27.8914 55.192C27.8914 53.992 28.1914 53.194 28.7914 52.798C29.4034 52.39 30.3034 52.186 31.4914 52.186C32.2474 52.186 33.0574 52.276 33.9214 52.456C33.9214 51.508 33.7594 50.884 33.4354 50.584C33.1114 50.284 32.4454 50.134 31.4374 50.134C30.3454 50.134 29.4454 50.272 28.7374 50.548L28.3774 49.072C29.5054 48.772 30.6154 48.622 31.7074 48.622C33.0874 48.622 34.0774 48.88 34.6774 49.396C35.2774 49.9 35.5774 50.824 35.5774 52.168ZM33.9214 56.506V53.716C33.3934 53.584 32.6854 53.518 31.7974 53.518C30.9814 53.518 30.4294 53.614 30.1414 53.806C29.8654 53.986 29.7274 54.418 29.7274 55.102C29.7274 55.846 29.8594 56.326 30.1234 56.542C30.3874 56.758 30.9394 56.866 31.7794 56.866C32.5234 56.866 33.2374 56.746 33.9214 56.506ZM44.9515 56.272L45.4015 57.766C44.6575 58.09 43.7575 58.252 42.7015 58.252C41.2135 58.252 40.0975 57.892 39.3535 57.172C38.6095 56.44 38.2375 55.18 38.2375 53.392C38.2375 51.616 38.6095 50.38 39.3535 49.684C40.0975 48.976 41.2135 48.622 42.7015 48.622C43.7215 48.622 44.6215 48.766 45.4015 49.054L44.9515 50.566C44.3275 50.29 43.6015 50.152 42.7735 50.152C42.1015 50.152 41.5795 50.23 41.2075 50.386C40.8475 50.53 40.5595 50.842 40.3435 51.322C40.1395 51.802 40.0375 52.504 40.0375 53.428C40.0375 54.712 40.2475 55.582 40.6675 56.038C41.0875 56.494 41.7895 56.722 42.7735 56.722C43.4935 56.722 44.2195 56.572 44.9515 56.272ZM54.6314 52.168V57.532C53.4794 58.012 52.1774 58.252 50.7254 58.252C49.3214 58.252 48.3374 58.036 47.7734 57.604C47.2214 57.16 46.9454 56.356 46.9454 55.192C46.9454 53.992 47.2454 53.194 47.8454 52.798C48.4574 52.39 49.3574 52.186 50.5454 52.186C51.3014 52.186 52.1114 52.276 52.9754 52.456C52.9754 51.508 52.8134 50.884 52.4894 50.584C52.1654 50.284 51.4994 50.134 50.4914 50.134C49.3994 50.134 48.4994 50.272 47.7914 50.548L47.4314 49.072C48.5594 48.772 49.6694 48.622 50.7614 48.622C52.1414 48.622 53.1314 48.88 53.7314 49.396C54.3314 49.9 54.6314 50.824 54.6314 52.168ZM52.9754 56.506V53.716C52.4474 53.584 51.7394 53.518 50.8514 53.518C50.0354 53.518 49.4834 53.614 49.1954 53.806C48.9194 53.986 48.7814 54.418 48.7814 55.102C48.7814 55.846 48.9134 56.326 49.1774 56.542C49.4414 56.758 49.9934 56.866 50.8334 56.866C51.5774 56.866 52.2914 56.746 52.9754 56.506ZM3.006 68.386V76H1.314V66.874H8.964V76H7.272V68.386H3.006ZM15.9172 76.252C14.4292 76.252 13.3492 75.898 12.6772 75.19C12.0052 74.47 11.6692 73.204 11.6692 71.392C11.6692 69.592 12.0052 68.35 12.6772 67.666C13.3492 66.97 14.4292 66.622 15.9172 66.622C17.4172 66.622 18.4972 66.97 19.1572 67.666C19.8292 68.35 20.1652 69.592 20.1652 71.392C20.1652 73.204 19.8292 74.47 19.1572 75.19C18.4972 75.898 17.4172 76.252 15.9172 76.252ZM17.8612 68.71C17.5252 68.29 16.8772 68.08 15.9172 68.08C14.9572 68.08 14.3092 68.29 13.9732 68.71C13.6372 69.13 13.4692 70.036 13.4692 71.428C13.4692 72.772 13.6372 73.672 13.9732 74.128C14.3212 74.572 14.9692 74.794 15.9172 74.794C16.8652 74.794 17.5072 74.572 17.8432 74.128C18.1912 73.672 18.3652 72.772 18.3652 71.428C18.3652 70.036 18.1972 69.13 17.8612 68.71ZM28.4257 68.386H25.5637C25.3357 70.954 24.8257 73.492 24.0337 76H22.2157C23.2237 73.012 23.7997 69.97 23.9437 66.874H30.1357V76H28.4257V68.386ZM39.943 74.326L40.267 75.748C39.175 76.084 38.137 76.252 37.153 76.252C35.713 76.252 34.627 75.892 33.895 75.172C33.175 74.44 32.815 73.18 32.815 71.392C32.815 69.652 33.157 68.422 33.841 67.702C34.537 66.982 35.587 66.622 36.991 66.622C37.711 66.622 38.305 66.7 38.773 66.856C39.241 67 39.637 67.264 39.961 67.648C40.297 68.032 40.531 68.56 40.663 69.232C40.807 69.904 40.867 70.756 40.843 71.788H34.633C34.645 72.964 34.855 73.756 35.263 74.164C35.671 74.56 36.367 74.758 37.351 74.758C38.239 74.758 39.103 74.614 39.943 74.326ZM37.063 68.044C36.223 68.044 35.629 68.212 35.281 68.548C34.933 68.884 34.723 69.502 34.651 70.402H39.151C39.103 69.454 38.929 68.824 38.629 68.512C38.341 68.2 37.819 68.044 37.063 68.044ZM47.2299 68.386V76H45.5199V68.386H42.1539V66.874H50.5779V68.386H47.2299ZM59.7291 70.168V75.532C58.5771 76.012 57.2751 76.252 55.8231 76.252C54.4191 76.252 53.4351 76.036 52.8711 75.604C52.3191 75.16 52.0431 74.356 52.0431 73.192C52.0431 71.992 52.3431 71.194 52.9431 70.798C53.5551 70.39 54.4551 70.186 55.6431 70.186C56.3991 70.186 57.2091 70.276 58.0731 70.456C58.0731 69.508 57.9111 68.884 57.5871 68.584C57.2631 68.284 56.5971 68.134 55.5891 68.134C54.4971 68.134 53.5971 68.272 52.8891 68.548L52.5291 67.072C53.6571 66.772 54.7671 66.622 55.8591 66.622C57.2391 66.622 58.2291 66.88 58.8291 67.396C59.4291 67.9 59.7291 68.824 59.7291 70.168ZM58.0731 74.506V71.716C57.5451 71.584 56.8371 71.518 55.9491 71.518C55.1331 71.518 54.5811 71.614 54.2931 71.806C54.0171 71.986 53.8791 72.418 53.8791 73.102C53.8791 73.846 54.0111 74.326 54.2751 74.542C54.5391 74.758 55.0911 74.866 55.9311 74.866C56.6751 74.866 57.3891 74.746 58.0731 74.506Z" fill="white"/>
<path fill-rule="evenodd" clip-rule="evenodd" d="M10.151 0.700872L11.9958 3.90057C12.2787 4.39119 12.1103 5.01818 11.6197 5.30105C11.1289 5.58399 10.502 5.41541 10.2192 4.92493L8.37436 1.72524C8.09149 1.23462 8.25993 0.60763 8.75055 0.324759C9.24109 0.0418198 9.86815 0.210257 10.151 0.700872ZM24.849 0.700887C25.132 0.210204 25.759 0.0418347 26.2494 0.324774C26.7401 0.607645 26.9085 1.23464 26.6256 1.72525L24.7808 4.92495C24.4979 5.41557 23.8708 5.58393 23.3803 5.30106C22.8897 5.01819 22.7213 4.3912 23.0042 3.90058L24.849 0.700887ZM24.9597 13.2808C24.7772 12.9609 24.4372 12.7633 24.0689 12.7633H19.209V4.95832C19.209 4.49628 18.8999 4.09132 18.4544 3.9693C18.0087 3.84748 17.5366 4.03848 17.3012 4.43605L10.0488 16.6891C9.86119 17.006 9.85798 17.3992 10.0404 17.7192C10.2228 18.0392 10.5628 18.2367 10.9311 18.2367H15.791V26.0417C15.791 26.5038 16.1 26.9087 16.5456 27.0307C16.9923 27.153 17.4639 26.9609 17.6988 26.564L24.9512 14.311C25.1388 13.994 25.142 13.6008 24.9597 13.2808ZM4.71502 14.4746H1.02539C0.459102 14.4746 0 14.9337 0 15.5C0 16.0663 0.459102 16.5254 1.02539 16.5254H4.71502C5.28131 16.5254 5.74041 16.0663 5.74041 15.5C5.74041 14.9337 5.28131 14.4746 4.71502 14.4746ZM30.285 14.4746H33.9746C34.5409 14.4746 35 14.9337 35 15.5C35 16.0663 34.5409 16.5254 33.9746 16.5254H30.285C29.7187 16.5254 29.2596 16.0663 29.2596 15.5C29.2596 14.9337 29.7187 14.4746 30.285 14.4746ZM11.6197 25.6989C11.1292 25.416 10.5022 25.5844 10.2192 26.075L8.37436 29.2747C8.09149 29.7654 8.25993 30.3923 8.75055 30.6752C9.24102 30.9581 9.86808 30.7897 10.151 30.2991L11.9958 27.0994C12.2787 26.6088 12.1103 25.9818 11.6197 25.6989ZM26.6256 29.2748L24.7808 26.0751C24.4979 25.5844 23.8709 25.4161 23.3803 25.6989C22.8897 25.9818 22.7213 26.6088 23.0042 27.0994L24.849 30.2991C25.1318 30.7896 25.7587 30.9582 26.2494 30.6752C26.7401 30.3924 26.9085 29.7654 26.6256 29.2748Z" fill="white"/>
</svg>
