<svg width="65" height="63" viewBox="0 0 65 63" fill="none" xmlns="http://www.w3.org/2000/svg">
<path d="M1.962 49.29L1.548 47.688C2.82 47.328 4.068 47.148 5.292 47.148C6.876 47.148 8.028 47.418 8.748 47.958C9.48 48.498 9.846 49.428 9.846 50.748C9.846 51.42 9.774 51.99 9.63 52.458C9.498 52.914 9.192 53.442 8.712 54.042C8.244 54.63 7.602 55.254 6.786 55.914C5.982 56.574 4.866 57.414 3.438 58.434H9.792V60H0.99V58.542C2.154 57.642 3.084 56.91 3.78 56.346C4.488 55.782 5.124 55.248 5.688 54.744C6.252 54.228 6.66 53.832 6.912 53.556C7.176 53.268 7.392 52.956 7.56 52.62C7.74 52.284 7.842 52.002 7.866 51.774C7.902 51.546 7.92 51.246 7.92 50.874C7.92 50.082 7.71 49.542 7.29 49.254C6.882 48.954 6.174 48.804 5.166 48.804C4.614 48.804 4.02 48.852 3.384 48.948C2.76 49.032 2.286 49.146 1.962 49.29ZM13.4644 47.454H20.8984V49.02H15.2104V52.44C15.8104 52.38 16.3984 52.35 16.9744 52.35C18.6784 52.35 19.8664 52.644 20.5384 53.232C21.2224 53.82 21.5644 54.816 21.5644 56.22C21.5644 57.732 21.1924 58.782 20.4484 59.37C19.7044 59.958 18.4444 60.252 16.6684 60.252C15.5044 60.252 14.2384 60.09 12.8704 59.766L13.2664 58.236C14.1304 58.5 15.1864 58.632 16.4344 58.632C17.6824 58.632 18.5164 58.47 18.9364 58.146C19.3684 57.822 19.5844 57.228 19.5844 56.364C19.5844 55.416 19.3864 54.774 18.9904 54.438C18.6064 54.09 17.8264 53.916 16.6504 53.916C15.4264 53.916 14.3644 54.012 13.4644 54.204V47.454ZM26.2268 47.688C26.8748 47.328 27.7328 47.148 28.8008 47.148C29.8688 47.148 30.7208 47.328 31.3568 47.688C32.0048 48.036 32.5028 48.684 32.8508 49.632C33.1988 50.58 33.3728 51.888 33.3728 53.556C33.3728 55.248 33.1988 56.592 32.8508 57.588C32.5148 58.572 32.0228 59.262 31.3748 59.658C30.7268 60.054 29.8688 60.252 28.8008 60.252C27.2048 60.252 26.0408 59.76 25.3088 58.776C24.5768 57.78 24.2108 56.04 24.2108 53.556C24.2108 51.888 24.3848 50.58 24.7328 49.632C25.0928 48.684 25.5908 48.036 26.2268 47.688ZM28.7828 58.614C29.8508 58.614 30.5768 58.272 30.9608 57.588C31.3448 56.904 31.5368 55.56 31.5368 53.556C31.5368 52.152 31.4468 51.108 31.2668 50.424C31.0868 49.728 30.8108 49.272 30.4388 49.056C30.0788 48.828 29.5268 48.714 28.7828 48.714C28.0628 48.714 27.5228 48.828 27.1628 49.056C26.8028 49.272 26.5268 49.728 26.3348 50.424C26.1548 51.12 26.0648 52.164 26.0648 53.556C26.0648 54.924 26.1548 55.974 26.3348 56.706C26.5148 57.426 26.7908 57.924 27.1628 58.2C27.5468 58.476 28.0868 58.614 28.7828 58.614ZM49.3459 60H47.3299C46.5139 58.44 45.7819 57.36 45.1339 56.76C44.4859 56.148 43.8139 55.776 43.1179 55.644V60H41.4259V50.874H43.1179V55.266C43.8619 54.558 45.1639 53.094 47.0239 50.874H49.0939C47.1499 53.25 45.8959 54.636 45.3319 55.032C45.7279 55.188 46.0639 55.368 46.3399 55.572C46.6159 55.776 47.0119 56.244 47.5279 56.976C48.0559 57.696 48.6619 58.704 49.3459 60ZM56.2875 56.976C57.1155 54.804 57.9735 52.77 58.8615 50.874H61.3635V60H59.6895V52.638C58.6335 54.894 57.6975 57.15 56.8815 59.406H55.4775C54.5415 56.874 53.6295 54.618 52.7415 52.638V60H51.0495V50.874H53.6415C54.5775 52.842 55.4595 54.876 56.2875 56.976Z" fill="white"/>
<path fill-rule="evenodd" clip-rule="evenodd" d="M25.1562 0H33.9062C34.51 0 35 0.486067 35 1.08497V7.5948C35 8.1937 34.51 8.67977 33.9062 8.67977H26.25V11.9347C26.25 12.5336 25.76 13.0196 25.1562 13.0196C24.5525 13.0196 24.0625 12.5336 24.0625 11.9347V7.5948V1.08497C24.0625 0.486067 24.5525 0 25.1562 0ZM7.65625 6.50983C3.43438 6.50983 0 9.91664 0 14.1046C0 18.0019 6.1425 24.9045 6.8425 25.6791C7.05031 25.907 7.34562 26.0393 7.65625 26.0393C7.96688 26.0393 8.26219 25.907 8.47 25.6791C9.17 24.9045 15.3125 18.0019 15.3125 14.1046C15.3125 9.91664 11.8781 6.50983 7.65625 6.50983ZM7.65625 17.3596C5.845 17.3596 4.375 15.9014 4.375 14.1046C4.375 12.3079 5.845 10.8497 7.65625 10.8497C9.4675 10.8497 10.9375 12.3079 10.9375 14.1046C10.9375 15.9014 9.4675 17.3596 7.65625 17.3596ZM19.6875 23.8694C18.4822 23.8694 17.5 22.8973 17.5 21.6995C17.5 20.5016 18.4822 19.5295 19.6875 19.5295H22.0763C22.5291 20.7902 23.73 21.6995 25.1562 21.6995C26.9675 21.6995 28.4375 20.2413 28.4375 18.4445C28.4375 16.6478 26.9675 15.1896 25.1562 15.1896C23.73 15.1896 22.5269 16.0988 22.0763 17.3596H19.6875C17.2747 17.3596 15.3125 19.306 15.3125 21.6995C15.3125 24.0929 17.2747 26.0393 19.6875 26.0393H30.625C31.8325 26.0393 32.8125 27.0115 32.8125 28.2093C32.8125 29.4071 31.8325 30.3792 30.625 30.3792H10.7362C10.2834 29.1185 9.0825 28.2093 7.65625 28.2093C5.845 28.2093 4.375 29.6675 4.375 31.4642C4.375 33.2609 5.845 34.7191 7.65625 34.7191C9.0825 34.7191 10.2856 33.8099 10.7362 32.5492H30.625C33.0378 32.5492 35 30.6027 35 28.2093C35 25.8158 33.0378 23.8694 30.625 23.8694H19.6875Z" fill="white"/>
</svg>
