<svg width="22" height="22" viewBox="0 0 22 22" fill="none" xmlns="http://www.w3.org/2000/svg">
<path fill-rule="evenodd" clip-rule="evenodd" d="M1 11C1 5.486 5.486 1 11 1C16.514 1 21 5.486 21 11C21 16.514 16.514 21 11 21C5.486 21 1 16.514 1 11ZM1.66667 11C1.66667 16.1463 5.85367 20.3333 11 20.3333C16.1463 20.3333 20.3333 16.1463 20.3333 11C20.3333 5.85367 16.1463 1.66667 11 1.66667C5.85367 1.66667 1.66667 5.85367 1.66667 11ZM8.85434 5.72462L16.1877 10.7246C16.2787 10.7866 16.3333 10.8896 16.3333 10.9999C16.3333 11.1103 16.2787 11.2133 16.1877 11.2753L8.85434 16.2753C8.798 16.3136 8.73234 16.3333 8.66667 16.3333C8.61334 16.3333 8.55967 16.3206 8.511 16.2946C8.40167 16.2369 8.33334 16.1236 8.33334 15.9999V5.99995C8.33334 5.87628 8.40167 5.76295 8.51067 5.70528C8.62 5.64762 8.752 5.65528 8.85434 5.72462ZM9 6.63095V15.3689L15.4083 10.9999L9 6.63095Z" fill="white"/>
<path d="M16.1877 10.7246L16.0468 10.9312L16.0469 10.9312L16.1877 10.7246ZM8.85434 5.72462L8.99517 5.51806L8.99456 5.51765L8.85434 5.72462ZM16.1877 11.2753L16.0469 11.0687L16.0468 11.0687L16.1877 11.2753ZM8.85434 16.2753L8.99498 16.482L8.99517 16.4818L8.85434 16.2753ZM8.511 16.2946L8.62881 16.0741L8.62763 16.0735L8.511 16.2946ZM8.51067 5.70528L8.39404 5.48416L8.39376 5.4843L8.51067 5.70528ZM9 15.3689H8.75V15.842L9.14083 15.5755L9 15.3689ZM9 6.63095L9.14083 6.42439L8.75 6.15793V6.63095H9ZM15.4083 10.9999L15.5492 11.2065L15.8521 10.9999L15.5492 10.7934L15.4083 10.9999ZM11 0.75C5.34793 0.75 0.75 5.34793 0.75 11H1.25C1.25 5.62407 5.62407 1.25 11 1.25V0.75ZM21.25 11C21.25 5.34793 16.6521 0.75 11 0.75V1.25C16.3759 1.25 20.75 5.62407 20.75 11H21.25ZM11 21.25C16.6521 21.25 21.25 16.6521 21.25 11H20.75C20.75 16.3759 16.3759 20.75 11 20.75V21.25ZM0.75 11C0.75 16.6521 5.34793 21.25 11 21.25V20.75C5.62407 20.75 1.25 16.3759 1.25 11H0.75ZM11 20.0833C5.99174 20.0833 1.91667 16.0083 1.91667 11H1.41667C1.41667 16.2844 5.7156 20.5833 11 20.5833V20.0833ZM20.0833 11C20.0833 16.0083 16.0083 20.0833 11 20.0833V20.5833C16.2844 20.5833 20.5833 16.2844 20.5833 11H20.0833ZM11 1.91667C16.0083 1.91667 20.0833 5.99174 20.0833 11H20.5833C20.5833 5.7156 16.2844 1.41667 11 1.41667V1.91667ZM1.91667 11C1.91667 5.99174 5.99174 1.91667 11 1.91667V1.41667C5.7156 1.41667 1.41667 5.7156 1.41667 11H1.91667ZM16.3285 10.5181L8.99517 5.51806L8.7135 5.93117L16.0468 10.9312L16.3285 10.5181ZM16.5833 10.9999C16.5833 10.8067 16.4876 10.6264 16.3284 10.518L16.0469 10.9312C16.0698 10.9468 16.0833 10.9725 16.0833 10.9999H16.5833ZM16.3284 11.4819C16.4876 11.3735 16.5833 11.1932 16.5833 10.9999H16.0833C16.0833 11.0274 16.0698 11.0531 16.0469 11.0687L16.3284 11.4819ZM8.99517 16.4818L16.3285 11.4818L16.0468 11.0687L8.7135 16.0687L8.99517 16.4818ZM8.66667 16.5833C8.78206 16.5833 8.89681 16.5488 8.99498 16.482L8.71369 16.0686C8.6992 16.0785 8.68261 16.0833 8.66667 16.0833V16.5833ZM8.3932 16.5151C8.47957 16.5613 8.57392 16.5833 8.66667 16.5833V16.0833C8.65275 16.0833 8.63977 16.08 8.62881 16.0741L8.3932 16.5151ZM8.08334 15.9999C8.08334 16.2163 8.20296 16.4148 8.39437 16.5157L8.62763 16.0735C8.60038 16.0591 8.58334 16.0309 8.58334 15.9999H8.08334ZM8.08334 5.99995V15.9999H8.58334V5.99995H8.08334ZM8.39376 5.4843C8.20285 5.58531 8.08334 5.7837 8.08334 5.99995H8.58334C8.58334 5.96887 8.60049 5.94059 8.62758 5.92626L8.39376 5.4843ZM8.99456 5.51765C8.81632 5.39688 8.5856 5.38312 8.39404 5.48416L8.6273 5.92641C8.65441 5.91211 8.68768 5.91368 8.71411 5.93159L8.99456 5.51765ZM9.25 15.3689V6.63095H8.75V15.3689H9.25ZM15.2675 10.7934L8.85918 15.1624L9.14083 15.5755L15.5492 11.2065L15.2675 10.7934ZM8.85918 6.83751L15.2675 11.2065L15.5492 10.7934L9.14083 6.42439L8.85918 6.83751Z" fill="white"/>
</svg>
