<svg width="17" height="17" viewBox="0 0 17 17" fill="none" xmlns="http://www.w3.org/2000/svg">
<path d="M15.5722 11.3948L12.2909 10.0302C12.1507 9.97226 11.995 9.96005 11.847 9.99542C11.6991 10.0308 11.567 10.1119 11.4706 10.2264L10.0174 11.9491C7.73686 10.9058 5.90151 9.12487 4.82624 6.91196L6.60166 5.50193C6.71993 5.40859 6.80363 5.28041 6.84011 5.13678C6.87659 4.99316 6.86384 4.84191 6.80381 4.70594L5.39754 1.522C5.33165 1.37543 5.21512 1.25576 5.06804 1.18363C4.92097 1.11149 4.75256 1.09141 4.59186 1.12686L1.54493 1.80913C1.39 1.84384 1.25177 1.92849 1.1528 2.04925C1.05383 2.17002 0.999964 2.31977 1 2.47406C1 9.76585 7.09093 15.6647 14.594 15.6647C14.753 15.6648 14.9074 15.6125 15.032 15.5165C15.1565 15.4204 15.2438 15.2863 15.2795 15.1359L15.9827 12.1794C16.019 12.0227 15.9978 11.8586 15.9229 11.7154C15.848 11.5722 15.724 11.4588 15.5722 11.3948V11.3948Z" stroke="white"/>
</svg>
