<svg width="25" height="18" viewBox="0 0 25 18" fill="none" xmlns="http://www.w3.org/2000/svg">
<path fill-rule="evenodd" clip-rule="evenodd" d="M3.05711 0H21.9481C23.6344 0 25.0052 1.30179 25 2.89723V15.1077C25 16.7031 23.6292 18 21.9429 18H3.05711C1.37078 18 0 16.7031 0 15.1077V2.89233C0 1.2969 1.37078 0 3.05711 0ZM21.9481 16.6786C22.8636 16.6786 23.6085 15.9739 23.6085 15.1077H23.6033V2.89723C23.6033 2.03099 22.8585 1.32626 21.9429 1.32626H3.05711C2.14153 1.32626 1.39665 2.03099 1.39665 2.89723V15.1077C1.39665 15.9739 2.14153 16.6786 3.05711 16.6786H21.9481ZM21.8808 3.66065L15.7666 8.84825L21.9066 14.3637C22.186 14.6133 22.1963 15.0342 21.9325 15.2985C21.7928 15.4355 21.6118 15.504 21.4256 15.504C21.2549 15.504 21.079 15.4453 20.9445 15.323L14.7268 9.73406L12.9836 11.212C12.8543 11.3246 12.6836 11.3833 12.5181 11.3833C12.3525 11.3833 12.187 11.3295 12.0525 11.2169L10.3558 9.783L4.10197 15.3181C3.96748 15.4355 3.79678 15.4943 3.62608 15.4943C3.43986 15.4943 3.25364 15.4208 3.11398 15.2838C2.85017 15.0146 2.86568 14.5987 3.14501 14.3491L9.30578 8.8923L3.11915 3.66065C2.82947 3.41595 2.80361 2.99996 3.06225 2.7259C3.32089 2.45184 3.76057 2.42737 4.05025 2.67207L10.7438 8.33928C10.7852 8.36864 10.8214 8.39801 10.8576 8.43226C10.8576 8.43716 10.8628 8.44205 10.868 8.44695L12.5129 9.83683L20.9445 2.67696C21.2342 2.43226 21.6739 2.45673 21.9325 2.7259C22.1911 2.99996 22.1653 3.41595 21.8808 3.66065Z" fill="white"/>
</svg>
