<svg width="15" height="15" viewBox="0 0 15 15" fill="none" xmlns="http://www.w3.org/2000/svg">
<path d="M0.348465 15C0.264237 15 0.182297 14.9667 0.121529 14.9052C0.0414201 14.8242 0.0105211 14.7066 0.0406191 14.5966L1.01577 11.0357C0.408661 9.93782 0.0885698 8.69591 0.0890275 7.43523C0.0907442 3.33538 3.42715 0 7.52666 0C9.51507 0.000801088 11.3834 0.775337 12.7877 2.18067C14.1918 3.58612 14.9647 5.45437 14.9642 7.44118C14.9623 11.5411 11.6259 14.8767 7.52666 14.8767C7.52666 14.8767 7.52357 14.8767 7.52345 14.8767C6.32606 14.8763 5.13896 14.5845 4.08199 14.0317L0.429375 14.9896C0.402596 14.9966 0.375359 15 0.348465 15Z" fill="#E5E5E5"/>
<path d="M0.348511 14.6808L1.35834 10.9932C0.735435 9.91391 0.407791 8.68962 0.408249 7.43535C0.409851 3.51151 3.60298 0.319183 7.5267 0.319183C9.43077 0.319984 11.218 1.0611 12.562 2.40624C13.9059 3.75138 14.6457 5.53941 14.645 7.44107C14.6433 11.3648 11.4497 14.5576 7.5267 14.5576C7.52647 14.5576 7.52682 14.5576 7.5267 14.5576H7.52361C6.33228 14.5571 5.16178 14.2583 4.12209 13.6913L0.348511 14.6808ZM4.29684 12.403L4.51302 12.5311C5.42122 13.0701 6.46252 13.3551 7.52441 13.3557H7.5267C10.7876 13.3557 13.4417 10.7021 13.4431 7.44061C13.4436 5.86007 12.8289 4.37383 11.7118 3.25585C10.5946 2.13788 9.10931 1.52184 7.52888 1.52116C4.26537 1.52116 1.61137 4.17447 1.61011 7.43581C1.60965 8.55344 1.9223 9.64177 2.51465 10.5836L2.65541 10.8075L2.05757 12.9901L4.29684 12.403Z" fill="white"/>
<path d="M0.596008 14.4324L1.57093 10.8722C0.969429 9.83036 0.653229 8.6483 0.653572 7.43763C0.65506 3.64964 3.73775 0.567856 7.52541 0.567856C9.36378 0.568657 11.0892 1.28414 12.3864 2.5827C13.6839 3.88126 14.398 5.60738 14.3974 7.44301C14.3958 11.2311 11.3129 14.3132 7.52575 14.3132C7.52541 14.3132 7.52586 14.3132 7.52575 14.3132H7.52266C6.37264 14.3128 5.24254 14.0242 4.23889 13.4771L0.596008 14.4324Z" fill="#64B161"/>
<path d="M0.348511 14.6808L1.35834 10.9932C0.735435 9.91391 0.407791 8.68962 0.408249 7.43535C0.409851 3.51151 3.60298 0.319183 7.5267 0.319183C9.43077 0.319984 11.218 1.0611 12.562 2.40624C13.9059 3.75138 14.6457 5.53941 14.645 7.44107C14.6433 11.3648 11.4497 14.5576 7.5267 14.5576C7.52647 14.5576 7.52682 14.5576 7.5267 14.5576H7.52361C6.33228 14.5571 5.16178 14.2583 4.12209 13.6913L0.348511 14.6808ZM4.29684 12.403L4.51302 12.5311C5.42122 13.0701 6.46252 13.3551 7.52441 13.3557H7.5267C10.7876 13.3557 13.4417 10.7021 13.4431 7.44061C13.4436 5.86007 12.8289 4.37383 11.7118 3.25585C10.5946 2.13788 9.10931 1.52184 7.52888 1.52116C4.26537 1.52116 1.61137 4.17447 1.61011 7.43581C1.60965 8.55344 1.9223 9.64177 2.51465 10.5836L2.65541 10.8075L2.05757 12.9901L4.29684 12.403Z" fill="white"/>
<path fill-rule="evenodd" clip-rule="evenodd" d="M5.74758 4.46034C5.61437 4.16417 5.47407 4.15822 5.34727 4.15307C5.24358 4.14861 5.12491 4.14884 5.00646 4.14884C4.8879 4.14884 4.69518 4.19347 4.53222 4.37142C4.36914 4.54938 3.90955 4.97968 3.90955 5.85481C3.90955 6.73005 4.54698 7.57566 4.6359 7.69445C4.72482 7.81312 5.86637 9.66638 7.6742 10.3793C9.17669 10.9719 9.48236 10.854 9.80852 10.8244C10.1347 10.7948 10.8608 10.3941 11.009 9.9788C11.1573 9.5635 11.1573 9.20758 11.1128 9.13308C11.0683 9.05904 10.9497 9.01452 10.7719 8.9256C10.594 8.83668 9.7196 8.40627 9.55652 8.34699C9.39344 8.28759 9.27488 8.25807 9.15632 8.43614C9.03764 8.61398 8.69707 9.01452 8.59327 9.13308C8.48947 9.25199 8.38567 9.26686 8.20783 9.17783C8.02999 9.08868 7.4571 8.901 6.77755 8.29503C6.24883 7.82365 5.89178 7.24137 5.78798 7.0633C5.6843 6.88546 5.78626 6.79757 5.86614 6.70041C6.00999 6.52543 6.25135 6.21083 6.31063 6.09227C6.36991 5.97348 6.34027 5.86968 6.29587 5.78065C6.25135 5.69173 5.90562 4.81214 5.74758 4.46034Z" fill="white"/>
</svg>
