<svg width="50" height="68" viewBox="0 0 50 68" fill="none" xmlns="http://www.w3.org/2000/svg">
<path d="M1.71 52.454H3.528V65H1.71V52.454ZM9.1087 59.06H12.9967C13.6087 59.06 14.0707 58.85 14.3827 58.43C14.6947 57.998 14.8507 57.398 14.8507 56.63C14.8507 54.878 14.2567 54.002 13.0687 54.002H9.1087V59.06ZM9.1087 65H7.2727V52.454H13.3387C15.6907 52.454 16.8667 53.852 16.8667 56.648C16.8667 57.368 16.7587 58.016 16.5427 58.592C16.3267 59.168 15.9487 59.654 15.4087 60.05C14.8687 60.434 14.2027 60.626 13.4107 60.626H9.1087V65ZM33.2017 52.652L32.7337 54.272C31.9537 53.972 30.9937 53.822 29.8537 53.822C29.2297 53.822 28.7137 53.87 28.3057 53.966C27.8977 54.062 27.5257 54.242 27.1897 54.506C26.8657 54.77 26.6197 55.154 26.4517 55.658C26.2957 56.162 26.2057 56.81 26.1817 57.602C27.0577 57.434 27.9937 57.35 28.9897 57.35C30.7057 57.35 31.9057 57.65 32.5897 58.25C33.2737 58.838 33.6157 59.834 33.6157 61.238C33.6157 62.75 33.2617 63.8 32.5537 64.388C31.8577 64.964 30.6757 65.252 29.0077 65.252C27.2317 65.252 25.9897 64.784 25.2817 63.848C24.5857 62.912 24.2377 61.178 24.2377 58.646C24.2377 57.374 24.3457 56.318 24.5617 55.478C24.7777 54.626 25.1257 53.96 25.6057 53.48C26.0857 52.988 26.6617 52.646 27.3337 52.454C28.0057 52.25 28.8457 52.148 29.8537 52.148C30.9577 52.148 32.0737 52.316 33.2017 52.652ZM29.0077 63.632C30.0757 63.632 30.7837 63.47 31.1317 63.146C31.4917 62.822 31.6717 62.234 31.6717 61.382C31.6717 60.458 31.4917 59.822 31.1317 59.474C30.7717 59.114 30.0757 58.928 29.0437 58.916C27.8077 58.916 26.8477 59 26.1637 59.168C26.1757 60.392 26.2897 61.334 26.5057 61.994C26.7337 62.654 27.0397 63.092 27.4237 63.308C27.8077 63.524 28.3357 63.632 29.0077 63.632ZM45.4421 52.454V53.048C44.5421 54.488 43.5521 56.384 42.4721 58.736C41.3921 61.088 40.5401 63.176 39.9161 65H37.8281C38.5601 62.996 39.4061 60.962 40.3661 58.898C41.3381 56.822 42.2141 55.196 42.9941 54.02H36.1901V52.454H45.4421Z" fill="white"/>
<path d="M35 17.7155C34.1494 17.1042 32.8584 16.7141 31.4122 16.7141C29.1731 16.7141 27.3048 17.649 26.8702 18.8924H26.6837C26.2596 17.641 24.3857 16.6978 22.1368 16.6978C20.6883 16.6978 19.398 17.0904 18.5478 17.7034V28.2282C18.5478 30.8477 16.4168 32.9785 13.7975 32.9785C11.1781 32.9785 9.04713 30.8476 9.04713 28.2282C9.04713 27.6494 9.5162 27.1804 10.095 27.1804C10.6738 27.1804 11.1429 27.6494 11.1429 28.2282C11.1429 29.6919 12.3337 30.8827 13.7975 30.8827C15.2612 30.8827 16.452 29.6919 16.452 28.2282V17.7205C15.6017 17.1072 14.3106 16.7141 12.8615 16.7141C10.6223 16.7141 8.75403 17.649 8.31945 18.8924H8.13295C7.70889 17.641 5.8349 16.6978 3.58614 16.6978C2.1409 16.6978 0.850526 17.0874 0 17.6979C0.683418 10.2355 7.70512 4.30362 16.4521 3.86189V3.07856C16.4521 2.49969 16.9211 2.03067 17.5 2.03067C18.0788 2.03067 18.5478 2.49974 18.5478 3.07856V3.862C27.3009 4.30471 34.3259 10.2452 35 17.7155ZM2.53139 2.03067C2.53139 2.03067 1.01237 5.02925 1.01237 5.86816C1.01237 6.70702 1.69247 7.38718 2.53139 7.38718C3.37031 7.38718 4.05041 6.70708 4.05041 5.86816C4.05041 5.02919 2.53139 2.03067 2.53139 2.03067ZM6.83189 0.0214844C6.83189 0.0214844 5.69238 2.27093 5.69238 2.9003C5.69238 3.52968 6.20257 4.03981 6.83189 4.03981C7.4612 4.03981 7.97139 3.52962 7.97139 2.9003C7.97139 2.27099 6.83189 0.0214844 6.83189 0.0214844Z" fill="white"/>
</svg>
