<svg width="50" height="63" viewBox="0 0 50 63" fill="none" xmlns="http://www.w3.org/2000/svg">
<path d="M0.558 55.788V54.186H4.662V55.788H0.558ZM9.1807 54.114V52.584H10.7647C11.7007 52.584 12.3667 52.434 12.7627 52.134C13.1707 51.822 13.3747 51.306 13.3747 50.586C13.3747 49.914 13.1707 49.446 12.7627 49.182C12.3547 48.906 11.5687 48.768 10.4047 48.768C9.1087 48.768 8.0047 48.906 7.0927 49.182L6.6967 47.616C8.2327 47.304 9.5467 47.148 10.6387 47.148C12.3427 47.148 13.5427 47.394 14.2387 47.886C14.9467 48.378 15.3007 49.176 15.3007 50.28C15.3007 51.168 15.1087 51.87 14.7247 52.386C14.3527 52.902 13.6507 53.208 12.6187 53.304C13.7227 53.352 14.4847 53.658 14.9047 54.222C15.3367 54.786 15.5527 55.572 15.5527 56.58C15.5527 57.936 15.1627 58.89 14.3827 59.442C13.6027 59.982 12.3307 60.252 10.5667 60.252C9.3307 60.252 8.0047 60.09 6.5887 59.766L6.9667 58.236C7.8667 58.5 8.9887 58.632 10.3327 58.632C11.6047 58.632 12.4627 58.47 12.9067 58.146C13.3507 57.822 13.5727 57.24 13.5727 56.4C13.5727 55.548 13.3627 54.954 12.9427 54.618C12.5227 54.282 11.8027 54.114 10.7827 54.114H9.1807ZM20.2151 47.688C20.8631 47.328 21.7211 47.148 22.7891 47.148C23.8571 47.148 24.7091 47.328 25.3451 47.688C25.9931 48.036 26.4911 48.684 26.8391 49.632C27.1871 50.58 27.3611 51.888 27.3611 53.556C27.3611 55.248 27.1871 56.592 26.8391 57.588C26.5031 58.572 26.0111 59.262 25.3631 59.658C24.7151 60.054 23.8571 60.252 22.7891 60.252C21.1931 60.252 20.0291 59.76 19.2971 58.776C18.5651 57.78 18.1991 56.04 18.1991 53.556C18.1991 51.888 18.3731 50.58 18.7211 49.632C19.0811 48.684 19.5791 48.036 20.2151 47.688ZM22.7711 58.614C23.8391 58.614 24.5651 58.272 24.9491 57.588C25.3331 56.904 25.5251 55.56 25.5251 53.556C25.5251 52.152 25.4351 51.108 25.2551 50.424C25.0751 49.728 24.7991 49.272 24.4271 49.056C24.0671 48.828 23.5151 48.714 22.7711 48.714C22.0511 48.714 21.5111 48.828 21.1511 49.056C20.7911 49.272 20.5151 49.728 20.3231 50.424C20.1431 51.12 20.0531 52.164 20.0531 53.556C20.0531 54.924 20.1431 55.974 20.3231 56.706C20.5031 57.426 20.7791 57.924 21.1511 58.2C21.5351 58.476 22.0751 58.614 22.7711 58.614ZM30.2235 47.994C30.6915 47.43 31.4655 47.148 32.5455 47.148C33.6255 47.148 34.3995 47.43 34.8675 47.994C35.3475 48.546 35.5875 49.578 35.5875 51.09C35.5875 52.614 35.3475 53.676 34.8675 54.276C34.3875 54.864 33.6135 55.158 32.5455 55.158C31.4775 55.158 30.7035 54.864 30.2235 54.276C29.7555 53.676 29.5215 52.614 29.5215 51.09C29.5215 49.578 29.7555 48.546 30.2235 47.994ZM32.5455 53.898C33.1215 53.898 33.5115 53.706 33.7155 53.322C33.9315 52.938 34.0395 52.2 34.0395 51.108C34.0395 50.004 33.9375 49.284 33.7335 48.948C33.5295 48.6 33.1335 48.426 32.5455 48.426C31.9815 48.426 31.5915 48.6 31.3755 48.948C31.1595 49.296 31.0515 50.016 31.0515 51.108C31.0515 52.188 31.1595 52.926 31.3755 53.322C31.6035 53.706 31.9935 53.898 32.5455 53.898Z" fill="white"/>
<path fill-rule="evenodd" clip-rule="evenodd" d="M19.6932 20.4466C19.6658 20.4349 19.6378 20.411 19.6378 20.3842V3.01687C19.6535 1.49029 18.518 0.19647 17.0023 0.013885C16.1831 -0.0662994 15.3683 0.203375 14.7587 0.756326C14.1491 1.30928 13.8015 2.09403 13.8016 2.91707V20.3842C13.8016 20.4127 13.7719 20.4355 13.7462 20.4466C10.8156 21.7043 8.97988 24.6556 9.14722 27.8402C9.38811 31.7276 12.5168 34.8102 16.4073 34.9935C16.5123 34.9976 16.6173 34.9999 16.7217 34.9999C20.3247 35.0021 23.4312 32.4673 24.152 28.937C24.8729 25.4069 23.0087 21.8571 19.6932 20.4466ZM20.791 27.7134C20.6377 29.8496 18.8599 31.5043 16.7183 31.5043C14.5766 31.5043 12.7989 29.8496 12.6455 27.7134C12.4921 25.5772 14.0152 23.6855 16.135 23.3796V18.6669C16.135 18.3447 16.3961 18.0836 16.7183 18.0836C17.0404 18.0836 17.3016 18.3448 17.3016 18.6669V23.3796C19.4213 23.6855 20.9444 25.5772 20.791 27.7134ZM16.7182 30.3334C18.3291 30.3334 19.6349 29.0276 19.6349 27.4167C19.6349 25.8059 18.3291 24.5001 16.7182 24.5001C15.1074 24.5001 13.8016 25.8059 13.8016 27.4167C13.8016 29.0276 15.1074 30.3334 16.7182 30.3334ZM23.7181 19.8335H21.3848C21.0627 19.8335 20.8015 19.5723 20.8015 19.2502C20.8015 18.9281 21.0626 18.6669 21.3848 18.6669H23.7181C24.0403 18.6669 24.3014 18.928 24.3014 19.2502C24.3014 19.5724 24.0403 19.8335 23.7181 19.8335ZM21.3848 17.5002H22.5515C22.8736 17.5002 23.1348 17.2391 23.1348 16.9169C23.1348 16.5948 22.8736 16.3336 22.5515 16.3336H21.3848C21.0626 16.3336 20.8015 16.5948 20.8015 16.9169C20.8015 17.2391 21.0627 17.5002 21.3848 17.5002ZM22.5515 15.1669H21.3848C21.0627 15.1669 20.8015 14.9058 20.8015 14.5836C20.8015 14.2615 21.0626 14.0003 21.3848 14.0003H22.5515C22.8736 14.0003 23.1348 14.2614 23.1348 14.5836C23.1348 14.9057 22.8736 15.1669 22.5515 15.1669ZM21.3848 12.8336H23.7181C24.0403 12.8336 24.3014 12.5725 24.3014 12.2503C24.3014 11.9281 24.0403 11.667 23.7181 11.667H21.3848C21.0626 11.667 20.8015 11.9281 20.8015 12.2503C20.8015 12.5725 21.0627 12.8336 21.3848 12.8336ZM22.5515 10.5003H21.3848C21.0627 10.5003 20.8015 10.2392 20.8015 9.91704C20.8015 9.59486 21.0626 9.33373 21.3848 9.33373H22.5515C22.8736 9.33373 23.1348 9.59493 23.1348 9.91704C23.1348 10.2391 22.8736 10.5003 22.5515 10.5003ZM21.3848 8.167H22.5515C22.8736 8.167 23.1348 7.90587 23.1348 7.58369C23.1348 7.26152 22.8736 7.00039 22.5515 7.00039H21.3848C21.0626 7.00039 20.8015 7.26152 20.8015 7.58369C20.8015 7.90587 21.0627 8.167 21.3848 8.167ZM23.7181 5.83372H21.3848C21.0627 5.83372 20.8015 5.57259 20.8015 5.25042C20.8015 4.92824 21.0626 4.66711 21.3848 4.66711H23.7181C24.0403 4.66711 24.3014 4.92824 24.3014 5.25042C24.3014 5.57259 24.0403 5.83372 23.7181 5.83372ZM21.3848 3.50044H22.5515C22.8736 3.50044 23.1348 3.23931 23.1348 2.91713C23.1348 2.59496 22.8736 2.33383 22.5515 2.33383H21.3848C21.0626 2.33383 20.8015 2.59496 20.8015 2.91713C20.8015 3.23931 21.0627 3.50044 21.3848 3.50044ZM9.88986 9.54798L9.59817 10.0531C9.49468 10.2351 9.3017 10.3477 9.09239 10.348C8.88308 10.3485 8.68955 10.2367 8.58531 10.0552C8.48106 9.8737 8.48202 9.65024 8.5879 9.46964L8.87959 8.96392L6.21846 7.42805V10.501H6.80177C7.12394 10.501 7.38507 10.7622 7.38507 11.0843C7.38507 11.4065 7.12394 11.6676 6.80177 11.6676H6.21846V12.2509C6.21846 12.5731 5.95734 12.8342 5.63516 12.8342C5.31299 12.8342 5.05186 12.5731 5.05186 12.2509V11.6676H4.46856C4.14638 11.6676 3.88525 11.4065 3.88525 11.0843C3.88525 10.7622 4.14638 10.501 4.46856 10.501H5.05186V7.42805L2.39073 8.96392L2.68242 9.46964C2.84094 9.7484 2.74469 10.1028 2.46702 10.2631C2.18935 10.4235 1.8343 10.3297 1.67215 10.053L1.38046 9.54784L0.875295 9.83953C0.596256 10.0006 0.239561 9.90501 0.0784402 9.62604C0.000853327 9.49199 -0.0202007 9.33265 0.0198573 9.18308C0.0599154 9.03351 0.157804 8.90602 0.291924 8.82864L0.797092 8.53696L0.505407 8.0324C0.39952 7.8518 0.398563 7.62834 0.502809 7.44685C0.607056 7.26535 0.800579 7.15359 1.00989 7.15407C1.21921 7.15454 1.41225 7.26713 1.51568 7.4491L1.80736 7.95365L4.46849 6.41778L1.80736 4.88128L1.51568 5.38645C1.41225 5.56842 1.21921 5.68101 1.00989 5.68149C0.800579 5.68197 0.607056 5.5702 0.502809 5.38871C0.398563 5.20722 0.39952 4.98375 0.505407 4.80315L0.797092 4.29798L0.291924 4.0063C0.111321 3.90212 3.33302e-05 3.70948 3.33302e-05 3.50099C3.33302e-05 3.2925 0.111184 3.09986 0.291719 2.99555C0.472253 2.89123 0.694692 2.89123 0.875295 2.99541L1.38046 3.2871L1.67215 2.78254C1.77558 2.60057 1.96862 2.48799 2.17793 2.48751C2.38725 2.48703 2.58077 2.5988 2.68502 2.78029C2.78926 2.96178 2.78831 3.18524 2.68242 3.36585L2.39073 3.87102L5.05186 5.40689V2.33452H4.46856C4.14638 2.33452 3.88525 2.07339 3.88525 1.75122C3.88525 1.42905 4.14638 1.16792 4.46856 1.16792H5.05186V0.584615C5.05186 0.262441 5.31306 0.00131226 5.63516 0.00131226C5.95727 0.00131226 6.21846 0.262441 6.21846 0.584615V1.16799H6.80177C7.12394 1.16799 7.38507 1.42918 7.38507 1.75129C7.38507 2.07339 7.12394 2.33459 6.80177 2.33459H6.21846V5.40689L8.87959 3.87102L8.5879 3.36585C8.48202 3.18524 8.48106 2.96178 8.58531 2.78029C8.68955 2.5988 8.88308 2.48703 9.09239 2.48751C9.3017 2.48799 9.49475 2.60057 9.59817 2.78254L9.88986 3.2871L10.395 2.99541C10.6742 2.83436 11.0311 2.93006 11.1922 3.20924C11.3532 3.48841 11.2575 3.84531 10.9783 4.00636L10.4732 4.29805L10.7648 4.80322C10.8707 4.98382 10.8717 5.20729 10.7674 5.38878C10.6632 5.57027 10.4697 5.68203 10.2604 5.68156C10.051 5.68108 9.858 5.56849 9.75458 5.38652L9.46289 4.88135L6.80177 6.41785L9.46289 7.95372L9.75458 7.44917C9.858 7.2672 10.051 7.15461 10.2604 7.15413C10.4697 7.15366 10.6632 7.26542 10.7674 7.44691C10.8717 7.6284 10.8707 7.85187 10.7648 8.03247L10.4732 8.53703L10.9783 8.82871C11.2575 8.98983 11.3532 9.34666 11.1922 9.62584C11.031 9.90501 10.6742 10.0007 10.395 9.83966L9.88986 9.54798Z" fill="white"/>
</svg>
